<?xml version="1.0" encoding="UTF-8" standalone="no"?>
<svg
   width="512"
   height="512"
   viewBox="0 0 512 512"
   version="1.1"
   id="svg46">
  <defs
     id="defs50" />
  <line
     x1="236.16631"
     y1="198"
     x2="477.97668"
     y2="198"
     style="fill:#ffffff;fill-opacity:0;stroke:#ffffff;stroke-width:29.32183647px;stroke-linecap:round;stroke-linejoin:round;stroke-opacity:1"
     id="line34" />
  <line
     x1="131.35988"
     y1="432"
     x2="478.98831"
     y2="432"
     style="fill:#ffffff;fill-opacity:1;stroke:#ffffff;stroke-width:35.15696716px;stroke-linecap:round;stroke-linejoin:round"
     id="line38" />
  <path
     style="fill:#ffffff;stroke-width:0.37365431"
     d="m 199.46497,202.39072 -56.47049,45.72947 c -3.90311,3.16072 -10.21452,3.16072 -14.0761,0 l -9.38407,-7.59916 c -3.90311,-3.16071 -3.90311,-8.27166 0,-11.39874 l 40.02761,-32.41413 -40.02761,-32.41413 c -3.90311,-3.16071 -3.90311,-8.27166 0,-11.39874 l 9.34254,-7.66641 c 3.90311,-3.16072 10.21452,-3.16072 14.0761,0 l 56.47049,45.72947 c 3.94464,3.16072 3.94464,8.27165 0.0415,11.43237 z"
     id="path4741" />
  <path
     style="fill:#ffffff;stroke-width:0.37365431"
     d="m 308.8897,326.76077 -56.4705,45.72947 c -3.9031,3.16072 -10.21451,3.16072 -14.0761,0 l -9.38407,-7.59916 c -3.9031,-3.16071 -3.9031,-8.27166 0,-11.39874 l 40.02762,-32.41413 -40.02762,-32.41413 c -3.9031,-3.16071 -3.9031,-8.27166 0,-11.39874 l 9.34255,-7.66641 c 3.90311,-3.16071 10.21452,-3.16071 14.0761,0 l 56.47049,45.72947 c 3.94464,3.16072 3.94464,8.27165 0.0415,11.43237 z"
     id="path4741-3" />
  <path
     style="fill:#ffffff;stroke-width:0.37365431"
     d="m 91.57431,439.0484 -56.470498,45.72947 c -3.903108,3.16072 -10.214516,3.16072 -14.076101,0 l -9.384069,-7.59916 c -3.903107,-3.16071 -3.903107,-8.27166 0,-11.39874 l 40.02762,-32.41413 -40.02762,-32.41413 c -3.903107,-3.16071 -3.903107,-8.27166 0,-11.39874 l 9.342546,-7.66641 c 3.903108,-3.16071 10.214516,-3.16071 14.076101,0 l 56.470491,45.72947 c 3.94464,3.16072 3.94464,8.27165 0.0415,11.43237 z"
     id="path4741-3-6" />
  <line
     x1="131.01234"
     y1="73.555923"
     x2="479.02408"
     y2="73.555923"
     style="fill:#ffffff;fill-opacity:0;stroke:#ffffff;stroke-width:35.17634201px;stroke-linecap:round;stroke-linejoin:round;stroke-opacity:1"
     id="line34-0" />
  <path
     style="fill:#ffffff;stroke-width:0.37365431"
     d="m 89.11733,77.94664 -56.470491,45.72947 c -3.903108,3.16072 -10.214516,3.16072 -14.076101,0 L 9.18667,116.07695 c -3.903107,-3.16071 -3.903107,-8.27166 0,-11.39874 L 49.214285,72.26408 9.18667,39.84995 c -3.903107,-3.16071 -3.903107,-8.27166 0,-11.39874 l 9.342545,-7.66641 c 3.903108,-3.16072 10.214516,-3.16072 14.076101,0 L 89.0758,66.51427 c 3.94464,3.16072 3.94464,8.27165 0.0415,11.43237 z"
     id="path4741-1" />
  <line
     x1="334.39059"
     y1="319.58624"
     x2="481.73053"
     y2="319.58624"
     style="fill:#ffffff;fill-opacity:1;stroke:#ffffff;stroke-width:22.88832092px;stroke-linecap:round;stroke-linejoin:round"
     id="line38-8" />
</svg>
