<?xml version="1.0" encoding="UTF-8" standalone="no"?>
<svg
   xmlns:dc="http://purl.org/dc/elements/1.1/"
   xmlns:cc="http://creativecommons.org/ns#"
   xmlns:rdf="http://www.w3.org/1999/02/22-rdf-syntax-ns#"
   xmlns:svg="http://www.w3.org/2000/svg"
   xmlns="http://www.w3.org/2000/svg"
   aria-hidden="true"
   focusable="false"
   data-prefix="fas"
   data-icon="sort-alpha-up"
   class="svg-inline--fa fa-sort-alpha-up fa-w-14"
   role="img"
   viewBox="0 0 576 576"
   version="1.1"
   id="svg4"
   width="24"
   height="24">
  <defs
     id="defs8" />
  <g
     transform="matrix(1.3267117,0,0,1.2764044,0.0059062,14912.574)"
     id="g844">
    <path
       style="fill:currentColor;stroke-width:1.00319612"
       id="path2"
       d="m 176.01121,-11360.812 h -48 v -305.947 c 0,-8.892 -7.16345,-16.102 -16,-16.102 H 80.011205 c -8.83656,0 -16,7.21 -16,16.102 v 305.947 h -48 c -14.2099999,0 -21.3799999,17.35 -11.3099999,27.484 l 79.9999999,96.615 c 6.24754,6.284 16.372465,6.284 22.620005,0 l 80,-96.615 c 10.04,-10.114 2.91,-27.484 -11.31,-27.484 z" />
    <text
       xml:space="preserve"
       style="font-style:normal;font-variant:normal;font-weight:bold;font-stretch:normal;font-size:259.10232544px;line-height:1.25;font-family:sans-serif;"
       x="222.90094"
       y="-11547.498"
       id="text878"
       transform="scale(1.0046179,0.99540334)"><tspan
         x="222.90094"
         y="-11547.498"
         id="tspan876"
         style="font-style:normal;font-variant:normal;font-weight:bold;font-stretch:normal;font-size:259.10232544px;font-family:sans-serif;">A</tspan></text>
    <text
       xml:space="preserve"
       style="font-style:normal;font-variant:normal;font-weight:bold;font-stretch:normal;font-size:347.29440308px;line-height:1.25;font-family:sans-serif;"
       x="227.97043"
       y="-10915.396"
       id="text872"
       transform="scale(0.97136131,1.029483)"><tspan
         x="227.97043"
         y="-10915.396"
         id="tspan870"
         style="font-style:normal;font-variant:normal;font-weight:bold;font-stretch:normal;font-size:347.29440308px;font-family:sans-serif;">r</tspan></text>
  </g>
  <text
     xml:space="preserve"
     style="font-style:normal;font-weight:normal;font-size:40px;line-height:1.25;font-family:sans-serif;letter-spacing:0px;word-spacing:0px;fill:#000000;fill-opacity:1;stroke:none"
     x="361.74069"
     y="-11345.363"
     id="text822"><tspan
       id="tspan820"
       x="361.74069"
       y="-11309.973" /></text>
</svg>
