<?xml version="1.0" encoding="UTF-8" standalone="no"?>
<svg
   height="24"
   width="24"
   id="svg4"
   version="1.1"
   viewBox="0 0 576 576"
   role="img"
   class="svg-inline--fa fa-sort-alpha-up fa-w-14"
   data-icon="sort-alpha-up"
   data-prefix="fas"
   focusable="false"
   aria-hidden="true">
  <defs
     id="defs8" />
  <g
     id="g844"
     transform="matrix(1.3267117,0,0,1.2764044,0.0059062,14912.574)">
    <path
       d="m 176.01121,-11360.812 h -48 v -305.947 c 0,-8.892 -7.16345,-16.102 -16,-16.102 H 80.011205 c -8.83656,0 -16,7.21 -16,16.102 v 305.947 h -48 c -14.2099999,0 -21.3799999,17.35 -11.3099999,27.484 l 79.9999999,96.615 c 6.24754,6.284 16.372465,6.284 22.620005,0 l 80,-96.615 c 10.04,-10.114 2.91,-27.484 -11.31,-27.484 z"
       id="path2"
       style="fill:currentColor;stroke-width:1.00319612" />
    <text
       transform="scale(1.0425727,0.95916571)"
       id="text878"
       y="-11967.103"
       x="202.35097"
       style="font-style:normal;font-variant:normal;font-weight:bold;font-stretch:normal;font-size:286.59713745px;line-height:1.25;font-family:sans-serif;stroke-width:1.1061157;opacity:0.54;"
       xml:space="preserve"><tspan
         style="font-style:normal;font-variant:normal;font-weight:bold;font-stretch:normal;font-size:286.59713745px;font-family:sans-serif;stroke-width:1.1061157;"
         id="tspan876"
         y="-11967.103"
         x="202.35097">G</tspan></text>
    <text
       transform="scale(1.0079825,0.99208073)"
       id="text872"
       y="-11325.894"
       x="215.53091"
       style="font-style:normal;font-variant:normal;font-weight:bold;font-stretch:normal;font-size:360.38775635px;line-height:1.25;font-family:sans-serif;stroke-width:1.03770089;opacity:0.54;"
       xml:space="preserve"><tspan
         style="font-style:normal;font-variant:normal;font-weight:bold;font-stretch:normal;font-size:360.38775635px;font-family:sans-serif;stroke-width:1.03770089;"
         id="tspan870"
         y="-11325.894"
         x="215.53091">a</tspan></text>
  </g>
  <text
     id="text822"
     y="-11345.363"
     x="361.74069"
     style="font-style:normal;font-weight:normal;font-size:40px;line-height:1.25;font-family:sans-serif;letter-spacing:0px;word-spacing:0px;fill:#000000;fill-opacity:1;stroke:none"
     xml:space="preserve"><tspan
       y="-11309.973"
       x="361.74069"
       id="tspan820" /></text>
</svg>
