<svg xmlns="http://www.w3.org/2000/svg" width="24" height="24" aria-hidden="true" class="svg-inline--fa fa-sort-alpha-up fa-w-14" data-icon="sort-alpha-up" data-prefix="fas" viewBox="0 0 576 576"><path fill="currentColor" d="M233.518 411.82h-63.681V21.305c0-11.35-9.504-20.553-21.227-20.553h-42.455c-11.723 0-21.227 9.203-21.227 20.553V411.82H21.246c-18.852 0-28.364 22.145-15.005 35.08l106.136 123.32c8.289 8.02 21.721 8.02 30.01 0L248.523 446.9c13.32-12.91 3.861-35.08-15.005-35.08z"/><text xml:space="preserve" x="202.351" y="-11967.103" stroke-width="1.106" font-family="sans-serif" font-size="286.6" font-weight="bold" opacity=".54" style="line-height:1.25" transform="matrix(1.3832 0 0 1.2243 .006 14913)"><tspan x="202.351" y="-11967.103">G</tspan></text><text xml:space="preserve" x="215.531" y="-11325.894" stroke-width="1.038" font-family="sans-serif" font-size="360.39" font-weight="bold" opacity=".54" style="line-height:1.25" transform="matrix(1.3373 0 0 1.2663 .006 14913)"><tspan x="215.531" y="-11325.894">a</tspan></text><text xml:space="preserve" x="361.741" y="-11345.363" font-family="sans-serif" font-size="40" letter-spacing="0" style="line-height:1.25" word-spacing="0"/></svg>