<?xml version="1.0" encoding="UTF-8" standalone="no"?>
<svg
   xmlns:dc="http://purl.org/dc/elements/1.1/"
   xmlns:cc="http://creativecommons.org/ns#"
   xmlns:rdf="http://www.w3.org/1999/02/22-rdf-syntax-ns#"
   xmlns:svg="http://www.w3.org/2000/svg"
   xmlns="http://www.w3.org/2000/svg"
   aria-hidden="true"
   focusable="false"
   data-prefix="fas"
   data-icon="sort-alpha-up"
   class="svg-inline--fa fa-sort-alpha-up fa-w-14"
   role="img"
   viewBox="0 0 448 512"
   version="1.1"
   id="svg4">
  <defs
     id="defs8" />
  <path
     d="m 176.01121,352.00742 h -48 V 48.007415 c 0,-8.83656 -7.16345,-16 -16,-16 H 80.011205 c -8.83656,0 -16,7.16344 -16,16 V 352.00742 h -48 c -14.2099999,0 -21.3799999,17.24 -11.3099999,27.31 l 79.9999999,96 c 6.24754,6.24344 16.372465,6.24344 22.620005,0 l 80,-96 c 10.04,-10.05 2.91,-27.31 -11.31,-27.31 z"
     id="path2"
     style="fill:currentColor" />
  <flowRoot
     xml:space="preserve"
     id="flowRoot817"
     style="font-style:normal;font-weight:normal;font-size:40px;line-height:1.25;font-family:sans-serif;letter-spacing:0px;word-spacing:0px;fill:#000000;fill-opacity:1;stroke:none"
     transform="matrix(6.5353806,0,0,5.752754,-1371.3141,-241.45554)"><flowRegion
       id="flowRegion819"><rect
         id="rect821"
         width="176.03363"
         height="180.63582"
         x="244.29941"
         y="41.42643" /></flowRegion><flowPara
       id="flowPara825"
       style="font-style:normal;font-variant:normal;font-weight:bold;font-stretch:normal;font-family:sans-serif;">H</flowPara></flowRoot>  <flowRoot
     xml:space="preserve"
     id="flowRoot817-9"
     style="font-style:normal;font-weight:normal;font-size:40px;line-height:1.25;font-family:sans-serif;letter-spacing:0px;word-spacing:0px;fill:#000000;fill-opacity:1;stroke:none"
     transform="matrix(8.1495132,0,0,5.752754,-1770.479,33.161797)"><flowRegion
       id="flowRegion819-8"><rect
         id="rect821-5"
         width="176.03363"
         height="180.63582"
         x="244.29941"
         y="41.42643" /></flowRegion><flowPara
       id="flowPara825-8"
       style="font-style:normal;font-variant:normal;font-weight:bold;font-stretch:normal;font-family:sans-serif;">e</flowPara></flowRoot></svg>
