<?xml version="1.0" encoding="UTF-8" standalone="no"?>
<svg
   xmlns:dc="http://purl.org/dc/elements/1.1/"
   xmlns:cc="http://creativecommons.org/ns#"
   xmlns:rdf="http://www.w3.org/1999/02/22-rdf-syntax-ns#"
   xmlns:svg="http://www.w3.org/2000/svg"
   xmlns="http://www.w3.org/2000/svg"
   aria-hidden="true"
   focusable="false"
   data-prefix="fas"
   data-icon="sort-alpha-up"
   class="svg-inline--fa fa-sort-alpha-up fa-w-14"
   role="img"
   viewBox="0 0 576 576"
   version="1.1"
   id="svg4"
   width="24"
   height="24">
  <defs
     id="defs8" />
  <g
     transform="matrix(1.3267117,0,0,1.2764044,0.0059062,14912.574)"
     id="g844">
    <path
       style="fill:currentColor"
       id="path2"
       d="m 176.01121,-11359.993 h -48 v -304 c 0,-8.836 -7.16345,-16 -16,-16 H 80.011205 c -8.83656,0 -16,7.164 -16,16 v 304 h -48 c -14.2099999,0 -21.3799999,17.24 -11.3099999,27.31 l 79.9999999,96 c 6.24754,6.244 16.372465,6.244 22.620005,0 l 80,-96 c 10.04,-10.05 2.91,-27.31 -11.31,-27.31 z" />
    <text
       xml:space="preserve"
       style="font-style:normal;font-weight:normal;font-size:308.73849487px;line-height:1.25;font-family:sans-serif;letter-spacing:0px;word-spacing:0px;fill:#000000;fill-opacity:1;stroke:none;stroke-width:7.71846247"
       x="200.49083"
       y="-12418.498"
       id="text878"
       transform="scale(1.0825622,0.92373448)"><tspan
         x="200.49083"
         y="-12418.498"
         id="tspan876"
         style="stroke-width:7.71846247"><tspan
           x="200.49083"
           y="-12418.498"
           style="font-style:normal;font-variant:normal;font-weight:bold;font-stretch:normal;font-family:sans-serif;"
           id="tspan874">L</tspan></tspan></text>
    <text
       xml:space="preserve"
       style="font-style:normal;font-weight:normal;font-size:311.53326416px;line-height:1.25;font-family:sans-serif;letter-spacing:0px;word-spacing:0px;fill:#000000;fill-opacity:1;stroke:none;stroke-width:7.78833151"
       x="250.9953"
       y="-12560.812"
       id="text872"
       transform="scale(1.1182309,0.89426968)"><tspan
         x="250.9953"
         y="-12560.812"
         id="tspan870"
         style="stroke-width:7.78833151">i<tspan
   x="250.9953"
   y="-12560.812"
   style="font-style:normal;font-variant:normal;font-weight:bold;font-stretch:normal;font-family:sans-serif;"
   id="tspan868" /></tspan></text>
  </g>
  <text
     xml:space="preserve"
     style="font-style:normal;font-weight:normal;font-size:40px;line-height:1.25;font-family:sans-serif;letter-spacing:0px;word-spacing:0px;fill:#000000;fill-opacity:1;stroke:none"
     x="361.74069"
     y="-11345.363"
     id="text822"><tspan
       id="tspan820"
       x="361.74069"
       y="-11309.973" /></text>
</svg>
