<?xml version="1.0" encoding="UTF-8" standalone="no"?>
<svg
   xmlns="http://www.w3.org/2000/svg"
   viewBox="0 0 576 576"
   version="1.1"
   width="24"
   height="24">
  <defs
     id="defs8" />
  <g
     transform="matrix(1.3267117,0,0,1.2764044,0.0059062,14912.574)"
     id="g844">
    <path
       style="fill:currentColor;stroke-width:1.00319612"
       id="path2"
       d="m 176.01121,-11360.812 h -48 v -305.947 c 0,-8.892 -7.16345,-16.102 -16,-16.102 H 80.011205 c -8.83656,0 -16,7.21 -16,16.102 v 305.947 h -48 c -14.2099999,0 -21.3799999,17.35 -11.3099999,27.484 l 79.9999999,96.615 c 6.24754,6.284 16.372465,6.284 22.620005,0 l 80,-96.615 c 10.04,-10.114 2.91,-27.484 -11.31,-27.484 z" />
    <text
       xml:space="preserve"
       style="font-style:normal;font-variant:normal;font-weight:bold;font-stretch:normal;font-size:311.42367554px;line-height:1.25;font-family:sans-serif;"
       x="206.14557"
       y="-12173.187"
       id="text878"
       transform="scale(1.0617733,0.94182062)"><tspan
         x="206.14557"
         y="-12173.187"
         id="tspan876"
         style="font-style:normal;font-variant:normal;font-weight:bold;font-stretch:normal;font-size:311.42367554px;font-family:sans-serif;">S</tspan></text>
    <text
       xml:space="preserve"
       style="font-style:normal;font-variant:normal;font-weight:bold;font-stretch:normal;font-size:332.52453613px;line-height:1.25;font-family:sans-serif;"
       x="206.31526"
       y="-12017.584"
       id="text872"
       transform="scale(1.0695078,0.93500951)"><tspan
         x="206.31526"
         y="-12017.584"
         id="tspan870"
         style="font-style:normal;font-variant:normal;font-weight:bold;font-stretch:normal;font-size:332.52453613px;font-family:sans-serif;">a</tspan></text>
  </g>
  <text
     xml:space="preserve"
     style="font-style:normal;font-weight:normal;font-size:40px;line-height:1.25;font-family:sans-serif;letter-spacing:0px;word-spacing:0px;fill:#000000;fill-opacity:1;stroke:none"
     x="361.74069"
     y="-11345.363"
     id="text822"><tspan
       id="tspan820"
       x="361.74069"
       y="-11309.973" /></text>
</svg>
